<svg width="46" height="60" viewBox="0 0 46 60" fill="none" xmlns="http://www.w3.org/2000/svg">
<path d="M13.2411 9.24957C13.9974 7.85226 16.0026 7.85226 16.7589 9.24957L26.3926 27.048C27.1138 28.3806 26.1489 30 24.6337 30H5.36632C3.85106 30 2.88616 28.3806 3.60745 27.048L13.2411 9.24957Z" fill="#155DFC"/>
<path d="M16.7589 52.7504C16.0026 54.1477 13.9974 54.1477 13.2411 52.7504L3.60745 34.952C2.88617 33.6194 3.85106 32 5.36633 32L24.6337 32C26.1489 32 27.1138 33.6194 26.3926 34.952L16.7589 52.7504Z" fill="#155DFC"/>
<path d="M41.3062 8.18873C42.886 8.20365 43.8256 9.95818 42.9624 11.2814L32.0276 28.0437C31.1973 29.3165 29.3069 29.2349 28.5894 27.8952L19.5115 10.9439C18.794 9.60422 19.7738 7.98544 21.2934 7.99979L41.3062 8.18873Z" fill="#155DFC"/>
</svg>
